<?xml version="1.0" standalone="no"?><!DOCTYPE svg PUBLIC "-//W3C//DTD SVG 1.1//EN" "http://www.w3.org/Graphics/SVG/1.1/DTD/svg11.dtd"><svg t="1658215205553" class="icon" viewBox="0 0 1024 1024" version="1.1" xmlns="http://www.w3.org/2000/svg" p-id="3208" xmlns:xlink="http://www.w3.org/1999/xlink" width="200" height="200"><defs><style type="text/css">@font-face { font-family: feedback-iconfont; src: url("//at.alicdn.com/t/font_1031158_u69w8yhxdu.woff2?t=1630033759944") format("woff2"), url("//at.alicdn.com/t/font_1031158_u69w8yhxdu.woff?t=1630033759944") format("woff"), url("//at.alicdn.com/t/font_1031158_u69w8yhxdu.ttf?t=1630033759944") format("truetype"); }
</style></defs><path d="M859.428571 256a18.285714 18.285714 0 0 1-18.285714-18.285714V146.285714H182.857143v91.428572a18.285714 18.285714 0 0 1-36.571429 0v-109.714286a18.285714 18.285714 0 0 1 18.285715-18.285714h694.857142a18.285714 18.285714 0 0 1 18.285715 18.285714v109.714286a18.285714 18.285714 0 0 1-18.285715 18.285714z" p-id="3209"></path><path d="M512 932.571429a18.285714 18.285714 0 0 1-18.285714-18.285715V128a18.285714 18.285714 0 0 1 36.571428 0V914.285714a18.285714 18.285714 0 0 1-18.285714 18.285715z" p-id="3210"></path><path d="M694.857143 932.571429H329.142857a18.285714 18.285714 0 0 1 0-36.571429h365.714286a18.285714 18.285714 0 0 1 0 36.571429z" p-id="3211"></path></svg>