<svg width="96.000000" height="96.000000" viewBox="0 0 96 96" fill="none" xmlns="http://www.w3.org/2000/svg" xmlns:xlink="http://www.w3.org/1999/xlink">
	<desc>
			Created with Pixso.
	</desc>
	<defs>
		<linearGradient id="paint_linear_341_46_0" x1="95.999985" y1="96.000000" x2="-0.000004" y2="0.000008" gradientUnits="userSpaceOnUse">
			<stop stop-color="#F72F48"/>
			<stop offset="1.000000" stop-color="#FE6666"/>
		</linearGradient>
	</defs>
	<circle id="椭圆 1" cx="48.000000" cy="48.000000" r="48.000000" fill="url(#paint_linear_341_46_0)"/>
	<path id="海潮" d="M17.7578 43.4414L21.5615 43.4414L22.8789 34.1641L42.8809 34.1641Q42.7695 39.3223 42.6582 43.4414L46.5547 43.4414L46.5547 46.0391L42.5654 46.0391Q42.4541 50.0469 42.3428 52.8672L45.3672 52.8672L45.3672 55.3906L42.1758 55.3906Q41.8604 58.1182 40.6914 59.4727Q39.3555 60.9941 35.9414 60.9941Q34.0117 60.9941 30.9688 60.8457Q30.7832 59.584 30.4492 57.8398Q34.0488 58.1738 35.9785 58.1738Q38.7803 58.1738 39.3184 55.3906L20.2441 55.3906L20.2441 52.6445L21.1904 46.0391L17.7578 46.0391L17.7578 43.4414ZM39.7822 46.0391L24.085 46.0391L23.1758 52.8672L39.5225 52.8672Q39.6709 49.8242 39.7822 46.0391ZM40.0234 36.6875L25.3281 36.6875L24.4189 43.4414L39.8564 43.4414Q39.9492 40.2871 40.0234 36.6875ZM17.4609 35.3516Q22.0625 31.0098 24.8828 24.7012L28.0371 24.7012Q27.1465 26.6309 26.1631 28.375L45.7754 28.375L45.7754 30.9727L24.6045 30.9727Q22.2109 34.7021 19.3535 37.541Q18.5 36.4277 17.4609 35.3516ZM10.6328 60.3262Q12.8223 53.832 14.418 46.1133Q16.0508 46.8184 17.4238 47.2637Q15.5312 54.5371 13.8984 61.3281L10.6328 60.3262ZM9.51953 37.1328L11.375 35.0176Q14.7891 37.3926 17.7207 39.8047Q16.3848 41.3262 15.5684 42.1797Q12.2656 39.2109 9.51953 37.1328ZM10.9297 27.2617L12.8223 25.2949Q15.0488 27.002 19.0195 30.4531Q17.7578 31.6777 16.8301 32.6426Q12.8223 28.8203 10.9297 27.2617ZM28.5195 48.3027L30.2266 46.6328Q32.7129 48.5254 34.8652 50.4551L32.9355 52.3848Q30.7461 50.2695 28.5195 48.3027ZM29.002 38.8027L30.6719 37.1328Q33.0469 38.9512 35.3477 40.918L33.4551 42.8477Q31.1914 40.6211 29.002 38.8027ZM72.123 27.0762L82.6992 27.0762L82.6992 57.0234Q82.6992 60.9199 79.3223 60.9199Q77.3555 60.9199 75.7598 60.8828Q75.6113 59.6211 75.3145 58.2109Q77.3926 58.3965 78.543 58.3965Q80.1016 58.3965 80.1016 56.7637L80.1016 48.2285L74.5723 48.2285Q73.8301 56.6523 69.8223 61.6621Q68.709 60.5488 67.6699 59.7695Q70.2305 56.2441 71.1953 52.7559Q72.123 49.416 72.123 43.998L72.123 27.0762ZM54.7188 52.2363L61.3984 52.2363L61.3984 48.5996L58.7637 48.5996L58.7637 49.3047L56.2402 49.3047L56.2402 34.832L61.4355 34.832L61.4355 31.418L55.3867 31.418L55.3867 29.1172L61.4355 29.1172L61.4355 24.9609L64.0332 24.9609L64.0332 29.1172L70.1562 29.1172L70.1562 31.418L64.0332 31.418L64.0332 34.832L69.2285 34.832L69.2285 49.3047L66.7051 49.3047L66.7051 48.5996L63.9961 48.5996L63.9961 52.2363L70.0078 52.2363L70.0078 54.5371L63.9961 54.5371L63.9961 61.3652L61.3984 61.3652L61.3984 54.5371L54.7188 54.5371L54.7188 52.2363ZM51.4902 45.5566Q52.9375 46.1875 54.3105 46.6699Q52.9375 52.7559 51.3418 61.291L48.2988 60.4004Q49.8945 53.9805 51.4902 45.5566ZM74.6836 45.9277L80.1016 45.9277L80.1016 38.8398L74.7207 38.8398Q74.7207 44.4434 74.6836 45.9277ZM80.1016 29.4883L74.7207 29.4883L74.7207 36.5391L80.1016 36.5391L80.1016 29.4883ZM58.7637 46.2988L66.7051 46.2988L66.7051 42.8105L58.7637 42.8105L58.7637 46.2988ZM66.7051 37.1328L58.7637 37.1328L58.7637 40.584L66.7051 40.584L66.7051 37.1328ZM49.3379 34.9805Q52.0098 37.3926 54.4219 39.8789Q53.0488 41.1777 52.1953 41.957Q49.9316 39.2852 47.4453 36.7988L49.3379 34.9805ZM50.377 25.5547Q52.5664 27.5957 55.0898 30.416Q53.8652 31.4922 52.7891 32.3828Q50.6738 29.6367 48.373 27.2988L50.377 25.5547Z" fill-rule="evenodd" fill="#FFFFFF"/>
</svg>
