<?xml version="1.0" standalone="no"?><!DOCTYPE svg PUBLIC "-//W3C//DTD SVG 1.1//EN" "http://www.w3.org/Graphics/SVG/1.1/DTD/svg11.dtd"><svg t="1658303663502" class="icon" viewBox="0 0 1024 1024" version="1.1" xmlns="http://www.w3.org/2000/svg" p-id="4337" xmlns:xlink="http://www.w3.org/1999/xlink" width="200" height="200"><defs><style type="text/css">@font-face { font-family: feedback-iconfont; src: url("//at.alicdn.com/t/font_1031158_u69w8yhxdu.woff2?t=1630033759944") format("woff2"), url("//at.alicdn.com/t/font_1031158_u69w8yhxdu.woff?t=1630033759944") format("woff"), url("//at.alicdn.com/t/font_1031158_u69w8yhxdu.ttf?t=1630033759944") format("truetype"); }
</style></defs><path d="M918.6 323.9c-7-7-18.2-7-25.2 0L578.8 638.5l-39.3-39.3c-7-7-18.2-7-25.2 0-7 6.9-7 18.2 0 25.2l39.3 39.3-50.3 50.3-192.9-192.9 50.3-50.3 96.5 96.5c3.5 3.5 8 5.2 12.6 5.2s9.1-1.7 12.6-5.2c7-6.9 7-18.2 0-25.2l-96.5-96.5L700.5 131c7-6.9 7-18.2 0-25.2s-18.2-7-25.2 0L272.6 508.5c-7 6.9-7 18.2 0 25.2l9.1 9.1-148.2 88.9c-4.8 2.9-8 7.9-8.6 13.5l-25.2 260c-0.5 5.3 1.4 10.5 5.1 14.3 3.4 3.4 7.9 5.2 12.6 5.2 0.6 0 1.1 0 1.7-0.1l260.1-25.2c5.6-0.5 10.6-3.7 13.5-8.6l88.9-148.2 9.1 9.1c3.3 3.3 7.9 5.2 12.6 5.2s9.2-1.9 12.6-5.2l75.5-75.5L918.6 349c6.9-6.9 6.9-18.1 0-25.1z m-551.7 541l-201.8 19.5 101.3-101.3c7.2 3.4 15.1 5.2 23 5.2 13.7 0 27.3-5.2 37.7-15.6 10.1-10.1 15.6-23.5 15.6-37.8s-5.6-27.7-15.6-37.7c-10.1-10.1-23.5-15.6-37.8-15.6s-27.7 5.6-37.8 15.6c-16.4 16.4-19.8 40.9-10.4 60.7L139.9 859.3l19.5-201.8 148.2-88.9 148.1 148.1-88.8 148.2z m-90.1-142.5c3.4-3.4 7.8-5.2 12.6-5.2s9.2 1.9 12.6 5.2c3.4 3.4 5.2 7.8 5.2 12.6s-1.9 9.2-5.2 12.6c-6.9 6.9-18.2 6.9-25.2 0-6.9-7-6.9-18.3 0-25.2z" fill="#2D3742" p-id="4338"></path></svg>